<svg width="18" height="18" viewBox="0 0 18 18" fill="none" xmlns="http://www.w3.org/2000/svg">
<path fill-rule="evenodd" clip-rule="evenodd" d="M4.23529 7.84191C4.23529 7.5454 4.48488 7.30475 4.79116 7.30475H5.74459L11.4616 13.1408V14.5726C11.4616 15.3047 10.9057 15.5797 10.3498 15.0426L6.70224 11.9696H4.79116C4.48488 11.9696 4.23529 11.7279 4.23529 11.4324V7.84191Z" fill="#BDC1C4"/>
<path d="M4.89809 3.67835C4.79636 3.69614 4.70178 3.74099 4.62498 3.80786C4.54818 3.87473 4.4922 3.96098 4.46333 4.0569C4.43446 4.15282 4.43384 4.25463 4.46154 4.35087C4.48924 4.44712 4.54417 4.53399 4.62015 4.60173L13.8359 13.5073C13.8849 13.5658 13.9461 13.6137 14.0156 13.6478C14.085 13.6819 14.161 13.7016 14.2388 13.7055C14.3166 13.7094 14.3944 13.6974 14.4671 13.6704C14.5398 13.6434 14.6058 13.602 14.6609 13.5487C14.7159 13.4955 14.7588 13.4317 14.7867 13.3614C14.8146 13.2911 14.8269 13.216 14.8228 13.1408C14.8187 13.0656 14.7983 12.9921 14.7629 12.9251C14.7275 12.858 14.678 12.7989 14.6174 12.7515L12.4023 10.6115V4.75064C12.4023 3.71211 11.3299 3.7228 10.5471 4.36496L8.0264 6.38285L5.40226 3.84594C5.34488 3.78689 5.27443 3.74114 5.19617 3.71211C5.11791 3.68309 5.03387 3.67155 4.95034 3.67835C4.93293 3.67756 4.91549 3.67756 4.89809 3.67835Z" fill="#BDC1C4"/>
</svg>
