<svg width="18" height="18" viewBox="0 0 18 18" fill="none" xmlns="http://www.w3.org/2000/svg">
<path fill-rule="evenodd" clip-rule="evenodd" d="M10.9934 2.74049C11.4448 2.5248 12.0186 2.77409 12.1943 3.24288C12.4186 3.84105 12.786 4.59534 13.3465 5.15641C13.9069 5.71748 14.6604 6.08533 15.2579 6.30986C15.7261 6.48583 15.9751 7.06022 15.7597 7.51212C15.4693 8.12121 15.1547 8.91609 15.1547 9.50098C15.1547 10.114 15.5003 10.9577 15.8014 11.5764C16.008 12.0009 15.8031 12.5381 15.371 12.7276C14.758 12.9965 13.9429 13.4295 13.3465 14.0266C12.8046 14.5691 12.4431 15.2471 12.2171 15.7899C12.0271 16.246 11.4592 16.4851 11.0141 16.2714C10.4031 15.978 9.59767 15.6558 9.00677 15.6558C8.39623 15.6558 7.55689 15.9996 6.93947 16.3003C6.51351 16.5078 5.95713 16.3052 5.7498 15.8788C5.47937 15.3227 5.05819 14.5992 4.48624 14.0266C3.90344 13.4431 3.1641 13.0164 2.60458 12.7463C2.18776 12.5452 1.99585 12.0183 2.19949 11.6023C2.50347 10.9814 2.85885 10.1226 2.85885 9.50098C2.85885 8.90942 2.53703 8.10308 2.24393 7.49138C2.03042 7.04576 2.26925 6.47732 2.72491 6.28711C3.26709 6.06078 3.94434 5.69892 4.48624 5.15641C5.08269 4.5593 5.51518 3.74334 5.78373 3.12962C5.97302 2.69704 6.50963 2.49192 6.93371 2.69876C7.55171 3.00019 8.39444 3.34617 9.00677 3.34617C9.59101 3.34617 10.385 3.0312 10.9934 2.74049ZM12.0949 7.11734C11.8965 6.91055 11.5749 6.91055 11.3765 7.11734L7.92209 10.7256L6.6013 9.34886C6.40292 9.14207 6.08128 9.14207 5.88289 9.34886C5.68451 9.55565 5.68451 9.89093 5.88289 10.0977L7.60286 11.8906C7.70927 11.9965 7.98306 12.1447 8.22689 11.8906L12.0949 7.85867C12.2933 7.65188 12.2933 7.32413 12.0949 7.11734Z" fill="#4B91CA"/>
</svg>
